<?xml version="1.0" encoding="UTF-8"?>
<svg xmlns="http://www.w3.org/2000/svg" xmlns:xlink="http://www.w3.org/1999/xlink" width="16pt" height="16pt" viewBox="0 0 16 16" version="1.1">
<g id="surface1">
<path style=" stroke:none;fill-rule:nonzero;fill: #fff;fill-opacity:1;" d="M 4.667969 6.75 L 4.667969 9.25 C 4.667969 9.664062 4.332031 10 3.917969 10 L 0.75 10 C 0.335938 10 0 9.664062 0 9.25 L 0 6.75 C 0 6.335938 0.335938 6 0.75 6 L 3.917969 6 C 4.332031 6 4.667969 6.335938 4.667969 6.75 Z M 0 11.75 L 0 14.25 C 0 14.664062 0.335938 15 0.75 15 L 3.917969 15 C 4.332031 15 4.667969 14.664062 4.667969 14.25 L 4.667969 11.75 C 4.667969 11.335938 4.332031 11 3.917969 11 L 0.75 11 C 0.335938 11 0 11.335938 0 11.75 Z M 3.917969 1 L 0.75 1 C 0.335938 1 0 1.335938 0 1.75 L 0 4.25 C 0 4.664062 0.335938 5 0.75 5 L 3.917969 5 C 4.332031 5 4.667969 4.664062 4.667969 4.25 L 4.667969 1.75 C 4.667969 1.335938 4.332031 1 3.917969 1 Z M 6.417969 15 L 15.25 15 C 15.664062 15 16 14.664062 16 14.25 L 16 11.75 C 16 11.335938 15.664062 11 15.25 11 L 6.417969 11 C 6.003906 11 5.667969 11.335938 5.667969 11.75 L 5.667969 14.25 C 5.667969 14.664062 6.003906 15 6.417969 15 Z M 5.667969 1.75 L 5.667969 4.25 C 5.667969 4.664062 6.003906 5 6.417969 5 L 15.25 5 C 15.664062 5 16 4.664062 16 4.25 L 16 1.75 C 16 1.335938 15.664062 1 15.25 1 L 6.417969 1 C 6.003906 1 5.667969 1.335938 5.667969 1.75 Z M 6.417969 10 L 15.25 10 C 15.664062 10 16 9.664062 16 9.25 L 16 6.75 C 16 6.335938 15.664062 6 15.25 6 L 6.417969 6 C 6.003906 6 5.667969 6.335938 5.667969 6.75 L 5.667969 9.25 C 5.667969 9.664062 6.003906 10 6.417969 10 Z M 6.417969 10 "/>
</g>
</svg>
